<svg xmlns="http://www.w3.org/2000/svg" width="200" height="45" viewBox="0 0 198 45"><path style="stroke:none;fill-rule:nonzero;fill:#000;fill-opacity:1" d="M10.34 1.613c-4.68 1.07-7.508 5.422-6.356 9.84.356 1.344.95 2.297 2.118 3.399 1.238 1.14 2.238 1.718 4.746 2.738 4.699 1.918 5.867 2.887 5.425 4.469-.441 1.699-2.812 2.632-5.015 1.988-1.172-.34-2.172-.867-3.461-1.871l-.95-.73-2.066 1.886-2.086 1.902 1.051 1.004c3.883 3.688 9.207 4.672 13.547 2.532 3.27-1.598 5.152-5.098 4.625-8.547-.508-3.262-2.594-5.235-7.781-7.325-3.067-1.257-3.594-1.511-4.219-2.191-.969-1.02-.578-2.582.828-3.297 1.543-.765 3.73-.46 5.918.848.543.324 1.05.578 1.102.578.066 0 .863-.95 1.78-2.125l1.677-2.121-.407-.34c-.761-.648-3.304-1.855-4.812-2.297-1.899-.558-4.121-.695-5.664-.34ZM65.027 1.816c-.289.598-12.136 27.582-12.136 27.684 0 .035 1.355.07 3.015.07h3.02l1.101-2.5 1.102-2.515h10.594l1.12 2.515 1.118 2.5h3.035c1.66 0 3.02-.05 3.02-.12 0-.052-2.801-6.407-6.223-14.106L67.586 1.359h-1.152c-1.102 0-1.168.036-1.407.457Zm2.848 14.055c.715 1.598 1.29 2.906 1.29 2.941 0 .036-1.22.051-2.712.051-1.492 0-2.715-.05-2.715-.136 0-.34 2.63-5.965 2.73-5.864.067.086.712 1.43 1.407 3.008ZM125.105 1.598c-6.05 1.293-10.425 5.726-11.44 11.574-.325 1.867-.325 3.058 0 4.926.593 3.398 2.237 6.273 4.948 8.582 1.035.883 3.426 2.21 4.594 2.566l.711.203v4.707h-1.016v3.367c0 3.977.137 4.57 1.27 5.625 1.816 1.664 4.578 1.188 5.715-.988l.472-.898v-7.106h-.843V29.81l1.27-.309c2.237-.523 5.816-2.582 7.339-4.215l.375-.422-1.953-1.906-1.95-1.918-.64.543c-2.02 1.7-3.781 2.516-5.781 2.652-6.07.457-10.664-5.593-8.664-11.422 1.152-3.363 4.61-5.843 8.101-5.843 1.903.015 4.207.918 5.73 2.258l.782.68 1.934-1.938c1.066-1.051 1.93-1.989 1.93-2.055 0-.086-.626-.629-1.387-1.242-1.594-1.258-3.543-2.277-5.395-2.8-1.64-.462-4.574-.599-6.102-.274ZM30.004 15.633V29.57h17.969v-5.61H35.598v-5.437h8.984v-5.777h-8.984V7.31h12.375v-5.61h-17.97ZM86.625 15.633V29.57h5.594V19.035h3.355l3.68 5.2c2.035 2.855 3.781 5.234 3.883 5.265.101.035 1.66.05 3.441.035l3.254-.05-4.05-5.676-4.052-5.692.813-.46c1.035-.595 2.578-2.278 3.137-3.415 2.39-4.894-.203-10.707-5.477-12.27-.781-.222-1.933-.273-7.254-.273h-6.324Zm12.852-7.817c1.285.73 1.847 2.211 1.32 3.485-.356.851-.695 1.222-1.543 1.664-.61.324-1.016.375-3.848.426l-3.187.07V7.273l3.273.067c3.102.05 3.29.07 3.985.476ZM145.957 15.633V29.57h5.426V18.523h11.02V29.57h5.593V1.7h-5.594v11.046h-11.02V1.7h-5.425ZM177.996 15.633V29.57h17.969v-5.61H183.59v-5.437h8.984v-5.777h-8.984V7.31h12.375v-5.61h-17.969Zm0 0"/><path style="stroke:none;fill-rule:nonzero;fill:#000;fill-opacity:1" d="M131.496 9.465c1.121.851 1.832 1.734 2.492 3.11.457.968.528 1.327.578 2.804.051 1.394 0 1.887-.289 2.719-.476 1.359-1.441 2.718-2.507 3.55-.493.375-.848.715-.817.75.172.168 1.883-.968 2.645-1.785 2.593-2.754 2.613-7.035.035-9.906-.762-.852-1.762-1.547-2.594-1.785-.289-.086-.137.086.457.543Zm0 0"/></svg>